<?xml version="1.0" encoding="UTF-8"?>
<!DOCTYPE svg PUBLIC "-//W3C//DTD SVG 1.1//EN"
   "http://www.w3.org/Graphics/SVG/1.1/DTD/svg11.dtd">
<svg xmlns="http://www.w3.org/2000/svg"
     xmlns:xlink="http://www.w3.org/1999/xlink"
>
  <title>Figure of the Interdependency of the Files</title>

  <g font-family="Verdana, Verdana, Helvetica, Arial, sans-serif" font-size="10pt">

    <g>
      <line x1="745" y1="116" x2="802" y2="29" stroke="black" stroke-width="2" />
      <polyline points="772,35 802,29 808,59" stroke="black" stroke-width="2" fill="none" />
     </g>

    <g>
      <line x1="516" y1="232" x2="688" y2="29" stroke="black" stroke-width="2" />
      <polyline points="658,31 688,29 690,59" stroke="black" stroke-width="2" fill="none" />
     </g>

    <g>
      <line x1="516" y1="232" x2="688" y2="145" stroke="black" stroke-width="2" />
      <polyline points="660,135 688,145 678,173" stroke="black" stroke-width="2" fill="none" />
     </g>

    <g>
      <line x1="401" y1="145" x2="458" y2="232" stroke="black" stroke-width="2" />
      <polyline points="464,202 458,232 428,226" stroke="black" stroke-width="2" fill="none" />
     </g>

    <g>
      <line x1="516" y1="125" x2="688" y2="135" stroke="black" stroke-width="2" />
      <polyline points="668,113 688,135 666,155" stroke="black" stroke-width="2" fill="none" />
     </g>

    <g>
      <line x1="516" y1="116" x2="688" y2="29" stroke="black" stroke-width="2" />
      <polyline points="660,19 688,29 678,57" stroke="black" stroke-width="2" fill="none" />
     </g>

    <g>
      <line x1="401" y1="29" x2="458" y2="116" stroke="black" stroke-width="2" />
      <polyline points="464,86 458,116 428,110" stroke="black" stroke-width="2" fill="none" />
     </g>

    <g>
      <line x1="172" y1="130" x2="344" y2="29" stroke="black" stroke-width="2" />
      <polygon points="315,22 344,29 337,58" stroke="black" fill="black" />
     </g>

    <g>
      <line x1="172" y1="130" x2="344" y2="145" stroke="black" stroke-width="2" />
      <polygon points="325,122 344,145 321,164" stroke="black" fill="black" />
     </g>

    <g>
      <line x1="172" y1="159" x2="344" y2="232" stroke="black" stroke-width="2" />
      <polygon points="333,205 344,232 317,243" stroke="black" fill="black" />
     </g>

    <g>
      <line x1="172" y1="130" x2="688" y2="29" stroke="black" stroke-width="2" />
      <polygon points="663,12 688,29 671,54" stroke="black" fill="black" />
     </g>

    <g>
      <line x1="172" y1="130" x2="688" y2="145" stroke="black" stroke-width="2" />
      <polygon points="668,123 688,145 666,165" stroke="black" fill="black" />
     </g>

    <g>
      <a xlink:href="File_unitIOpenGL.html">
        <rect x="688" y="0" width="172" height="29" rx="5" fill="white" stroke="black" stroke-width="2" />
      </a>
      <text x="774" y="18" text-anchor="middle">unitIOpenGL</text>
    </g>

    <g>
      <a xlink:href="File_unitElement.html">
        <rect x="688" y="116" width="172" height="29" rx="5" fill="white" stroke="black" stroke-width="2" />
      </a>
      <text x="774" y="134" text-anchor="middle">unitElement</text>
    </g>

    <g>
      <a xlink:href="File_uniTServo.html">
        <rect x="344" y="232" width="172" height="29" rx="5" fill="white" stroke="black" stroke-width="2" />
      </a>
      <text x="430" y="250" text-anchor="middle">uniTServo</text>
    </g>

    <g>
      <a xlink:href="File_unitRoboterarmPanel.html">
        <rect x="344" y="116" width="172" height="29" rx="5" fill="white" stroke="black" stroke-width="2" />
      </a>
      <text x="430" y="134" text-anchor="middle">unitRoboterarmPanel</text>
    </g>

    <g>
      <a xlink:href="File_unitRegler.html">
        <rect x="344" y="0" width="172" height="29" rx="5" fill="white" stroke="black" stroke-width="2" />
      </a>
      <text x="430" y="18" text-anchor="middle">unitRegler</text>
    </g>

    <g>
      <a xlink:href="File_dprRoboterarm.html">
        <rect x="0" y="130" width="172" height="29" rx="5" fill="white" stroke="black" stroke-width="2" />
      </a>
      <text x="86" y="148" text-anchor="middle">dprRoboterarm</text>
    </g>

  </g>
</svg>
